<svg xmlns="http://www.w3.org/2000/svg" viewBox="0 0 512 512"><title>icons_black</title><g id="add_portlets" data-name="add portlets"><path d="M349.07,281.92H325.58V219.29A31.4,31.4,0,0,0,294.27,188H231.64V164.49a39.14,39.14,0,0,0-78.28,0V188H90.73a31.27,31.27,0,0,0-31.15,31.31v59.5H82.9a42.27,42.27,0,1,1,0,84.54H59.42v59.5a31.4,31.4,0,0,0,31.31,31.31h59.5V430.66a42.27,42.27,0,1,1,84.54,0v23.48h59.5a31.4,31.4,0,0,0,31.31-31.31V360.2h23.49a39.14,39.14,0,0,0,0-78.28Z"/><path d="M377.66,57.86a74.92,74.92,0,1,0,74.92,74.92A74.92,74.92,0,0,0,377.66,57.86Zm48.09,86.94H389.68v36.06h-24V144.8H329.58v-24h36.06V84.69h24v36.07h36.07Z"/></g></svg>