<svg xmlns="http://www.w3.org/2000/svg" viewBox="0 0 512 512"><title>icons_white</title><g id="pin"><line x1="316.86" y1="316.75" x2="401.66" y2="401.57" style="fill:#fff"/><path d="M401.66,418.07A16.45,16.45,0,0,1,390,413.23l-84.8-84.81a16.5,16.5,0,0,1,23.33-23.33l84.81,84.81a16.51,16.51,0,0,1-11.67,28.17Z" style="fill:#F5F5F5"/><path d="M312.53,321.08l-86.42,86.43c-21.3-53.48,3.18-107.82,3.18-107.82l-79.95-94s-26.06,4.18-44.69-10.61l90.62-90.61a60.83,60.83,0,0,1,10.5,45.19l93.76,79.77s50.45-26,107.82-3.19Z" style="fill:#F5F5F5"/></g></svg>
