<svg xmlns="http://www.w3.org/2000/svg" viewBox="0 0 512 512"><title>icons_black</title><g id="documentation"><path fill="#5c6164" d="M415.55,114.18c-19.68-6.2-41.31-8.86-62.05-8.86-34.57,0-71.8,7.09-97.5,26.59-25.7-19.5-62.93-26.59-97.5-26.59S86.7,112.41,61,131.91v259.7c0,4.44,4.43,8.87,8.86,8.87,1.78,0,2.66-.89,4.44-.89,23.93-11.52,58.5-19.5,84.2-19.5,34.57,0,71.8,7.09,97.5,26.59,23.93-15.07,67.36-26.59,97.5-26.59,29.25,0,59.39,5.32,84.2,18.61a8,8,0,0,0,4.44.89c4.43,0,8.86-4.43,8.86-8.86V131.91C440.36,123.93,428.84,118.61,415.55,114.18Zm0,239.32c-19.5-6.2-40.78-8.86-62.05-8.86-30.14,0-73.57,11.52-97.5,26.59V167.36c23.93-15.06,67.36-26.59,97.5-26.59,21.27,0,42.55,2.66,62.05,8.87Z"/></g></svg>
