<svg xmlns="http://www.w3.org/2000/svg" viewBox="0 0 512 512"><title>icons_black</title><g id="color"><path d="M256,81a175,175,0,0,0,0,350,29.18,29.18,0,0,0,21.58-48.81,29.05,29.05,0,0,1,21.78-48.41h34.42A97.26,97.26,0,0,0,431,236.56C431,150.61,352.64,81,256,81ZM149.06,256a29.17,29.17,0,1,1,29.16-29.17A29.13,29.13,0,0,1,149.06,256Zm58.33-77.78a29.17,29.17,0,1,1,29.17-29.16A29.13,29.13,0,0,1,207.39,178.22Zm97.22,0a29.17,29.17,0,1,1,29.17-29.16A29.13,29.13,0,0,1,304.61,178.22ZM362.94,256a29.17,29.17,0,1,1,29.17-29.17A29.13,29.13,0,0,1,362.94,256Z"/></g></svg>