<svg width="319" height="79" viewBox="0 0 319 79" fill="none" xmlns="http://www.w3.org/2000/svg">
<g clip-path="url(#clip0)">
<path d="M11.09 58C11.0927 60.9448 9.92606 63.7702 7.84657 65.8554C5.76707 67.9405 2.94482 69.1147 0 69.12L0 78.8C5.50681 78.7894 10.784 76.5923 14.6714 72.6919C18.5587 68.7914 20.738 63.5068 20.73 58V21.92C17.3459 23.3927 14.1167 25.1982 11.09 27.31V58Z" fill="#1D1D1B"/>
<path d="M20.73 9.33V15.53C17.3832 16.8744 14.158 18.5037 11.09 20.4V9.33H20.73Z" fill="#0095DB"/>
<path d="M102 16C97.7888 15.998 93.6716 17.245 90.1692 19.5832C86.6668 21.9213 83.9364 25.2457 82.3235 29.1357C80.7106 33.0258 80.2875 37.3068 81.1079 41.4373C81.9282 45.5679 83.9551 49.3623 86.9322 52.3408C89.9092 55.3192 93.7027 57.3479 97.8329 58.1702C101.963 58.9925 106.244 58.5714 110.135 56.9604C114.026 55.3493 117.351 52.6205 119.691 49.1191C122.031 45.6178 123.28 41.5012 123.28 37.29C123.277 31.6461 121.035 26.2339 117.045 22.2422C113.055 18.2504 107.644 16.0053 102 16ZM102 49.21C99.6542 49.149 97.3785 48.3976 95.4576 47.0498C93.5367 45.7019 92.056 43.8175 91.2007 41.6324C90.3454 39.4472 90.1535 37.0583 90.6491 34.7647C91.1446 32.471 92.3056 30.3744 93.9867 28.7373C95.6678 27.1001 97.7944 25.9951 100.1 25.5604C102.406 25.1258 104.789 25.3809 106.951 26.2938C109.113 27.2067 110.957 28.7368 112.254 30.6927C113.55 32.6486 114.241 34.9434 114.24 37.29C114.185 40.487 112.866 43.5321 110.573 45.76C108.279 47.9879 105.197 49.2175 102 49.18V49.21Z" fill="#1D1D1B"/>
<path d="M161.06 57.77V36.48C161.06 33.4698 159.864 30.5829 157.736 28.4543C155.607 26.3258 152.72 25.13 149.71 25.13C146.7 25.13 143.813 26.3258 141.684 28.4543C139.556 30.5829 138.36 33.4698 138.36 36.48V57.77H129.36V36.48C129.365 31.0879 131.494 25.9148 135.286 22.0814C139.078 18.248 144.228 16.0631 149.62 16H149.8C155.197 16.0527 160.356 18.2316 164.156 22.0639C167.957 25.8962 170.092 31.0727 170.1 36.47V57.77H161.06Z" fill="#1D1D1B"/>
<path d="M283.25 57.77V36.48C283.295 34.9605 283.035 33.4474 282.484 32.0303C281.934 30.6133 281.105 29.3211 280.046 28.2303C278.987 27.1395 277.72 26.2724 276.32 25.6803C274.92 25.0881 273.415 24.783 271.895 24.783C270.375 24.783 268.87 25.0881 267.47 25.6803C266.07 26.2724 264.803 27.1395 263.744 28.2303C262.685 29.3211 261.856 30.6133 261.306 32.0303C260.755 33.4474 260.495 34.9605 260.54 36.48V57.77H251.54V36.48C251.545 31.0879 253.674 25.9148 257.466 22.0814C261.258 18.248 266.408 16.0631 271.8 16H272C277.397 16.0527 282.556 18.2316 286.356 22.0639C290.157 25.8962 292.292 31.0727 292.3 36.47V57.77H283.25Z" fill="#1D1D1B"/>
<path d="M71 43.64C68.1562 46.4915 64.5303 48.4352 60.5813 49.2249C56.6323 50.0146 52.5377 49.6149 48.816 48.0762C45.0943 46.5376 41.9128 43.9294 39.6743 40.5816C37.4357 37.2339 36.2408 33.2972 36.2408 29.27C36.2408 25.2428 37.4357 21.3061 39.6743 17.9584C41.9128 14.6106 45.0943 12.0024 48.816 10.4637C52.5377 8.92513 56.6323 8.52537 60.5813 9.31508C64.5303 10.1048 68.1562 12.0484 71 14.9L77.32 8.57999C73.2279 4.48311 68.0125 1.69204 62.3338 0.559896C56.655 -0.572248 50.7681 0.00541162 45.4177 2.21979C40.0673 4.43417 35.494 8.18576 32.2762 12.9999C29.0585 17.8141 27.341 23.4745 27.341 29.265C27.341 35.0555 29.0585 40.7159 32.2762 45.5301C35.494 50.3442 40.0673 54.0958 45.4177 56.3102C50.7681 58.5246 56.655 59.1022 62.3338 57.9701C68.0125 56.8379 73.2279 54.0469 77.32 49.95L71 43.64Z" fill="#1D1D1B"/>
<path d="M243 31.43C241.941 27.6921 239.879 24.3156 237.036 21.667C234.194 19.0184 230.681 17.1988 226.878 16.4056C223.074 15.6125 219.127 15.8762 215.463 17.168C211.799 18.4598 208.559 20.7305 206.094 23.7335C203.629 26.7366 202.034 30.3573 201.482 34.2029C200.929 38.0484 201.44 41.9718 202.96 45.5473C204.48 49.1227 206.949 52.2138 210.101 54.4848C213.253 56.7559 216.967 58.1203 220.84 58.43C225.958 58.8483 231.052 57.3872 235.17 54.32L228.97 47.32C227.46 48.2303 225.773 48.8078 224.022 49.014C222.271 49.2201 220.496 49.05 218.815 48.5152C217.135 47.9804 215.588 47.0931 214.279 45.9126C212.969 44.7322 211.926 43.2857 211.22 41.67H239.13C239.756 41.6688 240.375 41.5431 240.952 41.3003C241.529 41.0575 242.051 40.7025 242.49 40.2558C242.928 39.8092 243.273 39.2798 243.505 38.6985C243.737 38.1173 243.851 37.4957 243.84 36.87C243.803 35.0274 243.52 33.198 243 31.43ZM211.22 32.76C212.177 30.5482 213.76 28.6646 215.774 27.3414C217.788 26.0181 220.145 25.3131 222.555 25.3131C224.965 25.3131 227.322 26.0181 229.336 27.3414C231.35 28.6646 232.933 30.5482 233.89 32.76H211.22Z" fill="#1D1D1B"/>
<path d="M185.69 37.7V25.81H196V16.9H185.7V9.2H176.06V37.7C176.053 40.4279 176.585 43.1304 177.623 45.6529C178.661 48.1755 180.187 50.4686 182.112 52.4013C184.037 54.3339 186.325 55.8682 188.843 56.9164C191.362 57.9645 194.062 58.5061 196.79 58.51V48.83C195.33 48.8287 193.885 48.5397 192.537 47.9795C191.189 47.4193 189.964 46.599 188.933 45.5653C187.903 44.5317 187.086 43.305 186.529 41.9554C185.972 40.6059 185.687 39.1598 185.69 37.7Z" fill="#1D1D1B"/>
<path d="M307.72 37.7V25.81H318V16.9H307.7V9.2H298.06V37.7C298.053 40.4288 298.585 43.132 299.624 45.6552C300.663 48.1784 302.189 50.472 304.116 52.4048C306.042 54.3376 308.33 55.8716 310.85 56.9192C313.37 57.9668 316.071 58.5074 318.8 58.51V48.83C317.341 48.8274 315.898 48.5373 314.551 47.9765C313.205 47.4156 311.982 46.5949 310.953 45.5612C309.924 44.5276 309.109 43.3013 308.554 41.9524C308 40.6035 307.716 39.1585 307.72 37.7Z" fill="#1D1D1B"/>
</g>
<defs>
<clipPath id="clip0">
<path d="M0 0H318.8V78.8H0V0Z" fill="white"/>
</clipPath>
</defs>
</svg>
