<svg xmlns="http://www.w3.org/2000/svg" viewBox="0 0 512 512"><title>icons_white</title><g id="administration"><path d="M390.52,273.74a124.54,124.54,0,0,0,0-35.48l38.19-29.86a9.14,9.14,0,0,0,2.18-11.59l-36.2-62.62a9.11,9.11,0,0,0-11.05-4l-45.06,18.1A132.26,132.26,0,0,0,308,130.57l-6.88-48a8.83,8.83,0,0,0-8.87-7.6h-72.4A8.82,8.82,0,0,0,211,82.6l-6.88,48a139,139,0,0,0-30.59,17.74l-45.07-18.1a8.83,8.83,0,0,0-11,4l-36.2,62.62a8.93,8.93,0,0,0,2.18,11.59l38.19,29.86A142.43,142.43,0,0,0,120.29,256a142.43,142.43,0,0,0,1.27,17.74L83.37,303.6a9.14,9.14,0,0,0-2.18,11.59l36.2,62.62a9.1,9.1,0,0,0,11,4l45.07-18.1a132.23,132.23,0,0,0,30.59,17.73l6.88,48a8.82,8.82,0,0,0,8.87,7.6h72.4a8.83,8.83,0,0,0,8.87-7.6l6.88-48a139.4,139.4,0,0,0,30.59-17.73l45.06,18.1a8.85,8.85,0,0,0,11.05-4l36.2-62.62a9.14,9.14,0,0,0-2.18-11.59ZM256,319.35A63.35,63.35,0,1,1,319.39,256,63.42,63.42,0,0,1,256,319.35Z" style="fill:#fff"/></g></svg>