<svg xmlns="http://www.w3.org/2000/svg" viewBox="0 0 512 512"><title>icons_white</title><g id="livemodified"><path d="M263.75,389.6v40.77h40.78L424.79,310.11,384,269.34Zm192.57-111a10.83,10.83,0,0,0,0-15.33l-25.44-25.44a10.82,10.82,0,0,0-15.34,0L395.65,257.7l40.77,40.78Z" style="fill:#fff"/><path d="M388.5,248.56c-.58-93-77.46-168.24-170.42-166.92-91.62,1.3-165.58,76.06-165.58,168,0,92.74,75.26,168,168,168a169,169,0,0,0,29-2.5V283.83a34.21,34.21,0,0,0-34.21-34.21h-62V216h33.6a16.85,16.85,0,0,0,16.8-16.8v-33.6h33.6A33.7,33.7,0,0,0,270.9,132v-6.88a134.47,134.47,0,0,1,84,124.48ZM203.7,382.85A134.21,134.21,0,0,1,86.1,249.62a136.09,136.09,0,0,1,3.53-30.07L170.1,300v16.8a33.7,33.7,0,0,0,33.6,33.6Z" style="fill:#fff"/></g></svg>