<svg xmlns="http://www.w3.org/2000/svg" viewBox="0 0 512 512"><title>icons_white</title><g id="repository"><path d="M387.56,272.44H124.44A16.49,16.49,0,0,0,108,288.89v98.67A16.49,16.49,0,0,0,124.44,404H387.56A16.49,16.49,0,0,0,404,387.56V288.89A16.49,16.49,0,0,0,387.56,272.44Zm-213.78,95A29.22,29.22,0,1,1,203,338.22,29.31,29.31,0,0,1,173.78,367.44ZM387.56,108H124.44A16.49,16.49,0,0,0,108,124.44v98.67a16.49,16.49,0,0,0,16.44,16.45H387.56A16.49,16.49,0,0,0,404,223.11V124.44A16.49,16.49,0,0,0,387.56,108ZM173.78,202.56a28.78,28.78,0,1,1,28.78-28.78A28.86,28.86,0,0,1,173.78,202.56Z" style="fill:#fff"/></g></svg>