<svg xmlns="http://www.w3.org/2000/svg" viewBox="0 0 512 512"><title>icons_white</title><g id="unknown"><path d="M171.34,429.42a66.52,66.52,0,1,1,66.52-66.52A66.59,66.59,0,0,1,171.34,429.42Z" style="fill:#fff"/><path d="M340.66,429.42a66.52,66.52,0,1,1,66.52-66.52A66.58,66.58,0,0,1,340.66,429.42Z" style="fill:#fff"/><path d="M116.92,362.9a6.06,6.06,0,0,1-6,6.05" style="fill:#fff"/><path d="M280.19,368.94a6.06,6.06,0,0,1-6.05-6c0-2.28-.66-22.2-18.14-22.2s-18.12,19.92-18.14,22.2a6.06,6.06,0,0,1-6.05,6h0a6,6,0,0,1-6-6c0-11.84,6.34-34.26,30.24-34.26s30.24,22.42,30.24,34.26a6,6,0,0,1-6,6Z" style="fill:#fff"/><path d="M455,245.28a15.1,15.1,0,0,0-15.11-15.1H386.53L351.18,112.4a41.51,41.51,0,0,0-51.56-28.09c-.44.13-.88.26-1.32.41L256,99,213.7,84.72A41.51,41.51,0,0,0,161.19,111c-.13.39-.25.77-.37,1.16l-35.35,118H72.11a15.11,15.11,0,1,0,0,30.21H439.89A15.1,15.1,0,0,0,455,245.28Z" style="fill:#fff"/></g></svg>