<svg xmlns="http://www.w3.org/2000/svg" viewBox="0 0 512 512"><title>icons_white</title><g id="visibilityoff"><path d="M256.09,160a87.34,87.34,0,0,1,87.31,87.31,84.73,84.73,0,0,1-6.29,32l51,51a206.44,206.44,0,0,0,59.9-83c-30.21-76.66-104.77-131-192.09-131a203.6,203.6,0,0,0-69.5,12.22l37.72,37.72A84.88,84.88,0,0,1,256.09,160ZM81.46,112.28l39.82,39.82,8,8A206.11,206.11,0,0,0,64,247.27c30.21,76.66,104.77,131,192.09,131a205.61,205.61,0,0,0,76.48-14.67l7.34,7.33,51.16,51,22.18-22.17L103.64,90.11ZM178,208.85l27.07,27.07a48.92,48.92,0,0,0-1.4,11.35,52.32,52.32,0,0,0,52.39,52.39,49.46,49.46,0,0,0,11.35-1.4l27.06,27.07A86.74,86.74,0,0,1,178,208.85Zm75.26-13.62,55,55,.35-2.8a52.32,52.32,0,0,0-52.39-52.38Z" style="fill:#fff"/></g></svg>